<svg width="170" height="170" viewBox="0 0 170 170" fill="none" xmlns="http://www.w3.org/2000/svg">
<path d="M76.523 103.136H93.4731H76.523ZM84.9999 52.3549V55.9821V52.3549ZM108.084 61.9163L105.519 64.4807L108.084 61.9163ZM117.645 85H114.018H117.645ZM55.982 85H52.3547H55.982ZM64.4806 64.4807L61.9161 61.9163L64.4806 64.4807ZM72.174 97.8259C69.6381 95.2894 67.9112 92.0578 67.2118 88.5398C66.5124 85.0219 66.8719 81.3756 68.2447 78.0619C69.6175 74.7482 71.9421 71.916 74.9245 69.9234C77.9068 67.9307 81.4131 66.8672 84.9999 66.8672C88.5867 66.8672 92.093 67.9307 95.0753 69.9234C98.0577 71.916 100.382 74.7482 101.755 78.0619C103.128 81.3756 103.487 85.0219 102.788 88.5398C102.089 92.0578 100.362 95.2894 97.8258 97.8259L95.8381 99.81C94.7017 100.947 93.8003 102.296 93.1854 103.781C92.5705 105.266 92.2542 106.857 92.2544 108.465V110.391C92.2544 112.315 91.4901 114.16 90.1296 115.52C88.7691 116.881 86.9239 117.645 84.9999 117.645C83.0759 117.645 81.2307 116.881 79.8702 115.52C78.5097 114.16 77.7454 112.315 77.7454 110.391V108.465C77.7454 105.218 76.4541 102.102 74.1617 99.81L72.174 97.8259Z" stroke="#EC7979" stroke-width="6.83333" stroke-linecap="round" stroke-linejoin="round"/>
<circle cx="85" cy="85" r="45.5" stroke="#EC7979"/>
</svg>
